<?xml version="1.0" standalone="no"?>
<!DOCTYPE svg PUBLIC "-//W3C//DTD SVG 20010904//EN"
 "http://www.w3.org/TR/2001/REC-SVG-20010904/DTD/svg10.dtd">
<svg version="1.0" xmlns="http://www.w3.org/2000/svg"
 width="32.000000pt" height="32.000000pt" viewBox="0 0 32.000000 32.000000"
 preserveAspectRatio="xMidYMid meet">

<g transform="translate(0.000000,32.000000) scale(0.100000,-0.100000)"
fill="#000000" stroke="none">
<path d="M47 250 c-10 -12 -15 -25 -12 -30 4 -6 1 -10 -6 -10 -6 0 -9 -8 -6
-20 3 -11 1 -20 -4 -20 -5 0 -9 -7 -9 -15 0 -8 8 -15 18 -15 13 0 14 -2 3 -9
-17 -11 -6 -31 17 -31 14 0 14 -2 3 -9 -18 -12 -3 -34 19 -28 12 3 17 0 13 -8
-3 -10 5 -13 31 -12 20 1 36 5 36 10 0 4 -5 7 -11 7 -6 0 -9 7 -6 15 9 22 -10
28 -23 8 -9 -15 -10 -14 -4 6 5 20 3 23 -14 19 -15 -4 -18 -1 -15 13 4 15 2
18 -13 12 -16 -6 -17 -5 -6 9 7 9 9 19 4 22 -12 7 -5 67 8 80 6 6 10 14 10 18
0 14 -15 9 -33 -12z"/>
<path d="M254 238 c7 -18 11 -39 9 -45 -3 -7 1 -13 9 -13 8 0 6 -5 -5 -11 -14
-8 -16 -14 -6 -25 10 -12 9 -13 -6 -8 -14 6 -16 3 -11 -14 6 -17 4 -21 -8 -16
-12 5 -16 0 -16 -17 0 -22 0 -22 -15 -3 -14 19 -14 18 -15 -3 0 -13 -4 -23
-10 -23 -5 0 -10 -3 -10 -7 0 -5 16 -9 36 -10 26 -1 34 2 31 12 -4 8 1 11 13
8 22 -6 37 16 19 28 -10 6 -8 9 9 9 23 0 31 25 10 33 -8 3 -6 6 5 6 17 1 25
31 8 31 -5 0 -7 9 -4 20 3 12 0 20 -6 20 -7 0 -10 4 -6 10 6 9 -24 50 -37 50
-4 0 -1 -15 6 -32z"/>
<path d="M100 219 c0 -8 3 -24 6 -37 6 -21 12 -23 58 -20 48 3 51 5 54 32 3
27 2 29 -13 16 -15 -12 -18 -12 -27 4 -9 17 -11 17 -30 -1 -19 -17 -20 -17
-34 2 -10 13 -14 15 -14 4z"/>
<path d="M133 133 c15 -2 39 -2 55 0 15 2 2 4 -28 4 -30 0 -43 -2 -27 -4z"/>
</g>
</svg>
